<?xml version="1.0" encoding="utf-8"?>
<!-- Generator: Adobe Illustrator 27.5.0, SVG Export Plug-In . SVG Version: 6.00 Build 0)  -->
<svg version="1.1" xmlns="http://www.w3.org/2000/svg" xmlns:xlink="http://www.w3.org/1999/xlink" x="0px" y="0px"
	 viewBox="0 0 1122 1122" style="enable-background:new 0 0 1122 1122;" xml:space="preserve">
<g id="background">
	<rect style="fill:#41543B;" width="1122" height="1122"/>
</g>
<g id="object">
	<g>
		<g>
			<path style="fill:#FFFFFF;" d="M846.966,337.464l-4.641,41.057l23.194-33.736c2.479-3.605,1.066-8.576-2.938-10.339l-5.869-2.584
				C852.405,329.966,847.494,332.789,846.966,337.464z"/>
			<path style="fill:#FFFFFF;" d="M880.649,376.955l-41.252-2.341l34.978,21.274c3.738,2.273,8.622,0.586,10.159-3.511l2.253-6.004
				C888.44,381.967,885.347,377.222,880.649,376.955z"/>
			<path style="fill:#FFFFFF;" d="M874.738,351.829l-32.452,25.574l40.295-7.236c4.306-0.773,6.847-5.273,5.284-9.36l-2.29-5.99
				C883.894,350.422,878.434,348.917,874.738,351.829z"/>
			<g>
				<path style="fill:#FFFFFF;" d="M870.049,406.262l-28.309-30.096l10.725,39.509c1.146,4.223,5.851,6.361,9.785,4.447l5.767-2.804
					C872.25,415.26,873.273,409.689,870.049,406.262z"/>
				<g>
					<path style="fill:#FFFFFF;" d="M666.751,727.561c16.926-11.207,33.899-22.343,51.008-33.27
						c78.901-50.392,162.172-97.497,251.691-125.777c-3.851,0.156-7.947,0.343-12.194,0.554
						c-31.984,1.585-64.218,3.684-96.405,6.757l-19.46-190.469l1.518-6.566l0.308,0.413l-0.159-1.054l0.13-0.562l2.253-1.39
						l-1.96,0.124l0.206-0.89l-0.809,0.929l-0.09,0.006l-5.761-38.013c-0.705-4.652-5.719-7.287-9.95-5.23l-5.767,2.805
						c-3.934,1.913-5.158,6.934-2.545,10.443l19.336,25.962l-28.153-21.899c-3.714-2.889-9.164-1.349-10.817,3.057l-2.253,6.004
						c-1.537,4.096,1.032,8.58,5.343,9.326l38.186,6.608l0.773,1.038l-0.691,0.044l-0.047-0.463l-0.034,0.468l-36.201,2.284
						c-4.696,0.296-7.759,5.061-6.078,9.456l2.29,5.99c1.563,4.087,6.458,5.744,10.181,3.447l29.592-18.255v0.006l-23.653,27.134
						c-3.092,3.547-1.858,9.075,2.448,10.971l5.869,2.584c4.004,1.763,8.625-0.551,9.61-4.814l4.518-19.542l-13.591,183.872
						c-10.346,1.249-20.674,2.62-30.978,4.131l-2.126-53.703L729.6,480.029l-56.4,53.01v76.523
						c-20.366,5.951-40.463,12.831-60.128,20.802c-8.222,3.333-16.162,7.056-24.125,10.849c-2.502,1.249-20.728,12.92-22.183,12.022
						c15.226,9.386,30.046,19.44,44.467,30.001C630.348,697.236,648.834,712.065,666.751,727.561z M715.927,528.872l17.023-13.742
						l18.92,12.974l0.999,22.575l-36.942,0.281V528.872z"/>
					<path style="fill:#FFFFFF;" d="M686.906,745.494c28.548,26.119,55.593,53.906,81.262,82.808
						c2.263,2.547,4.508,5.111,6.751,7.677c21.255-17.751,41.073-37.239,59.995-57.421c21.502-22.934,41.878-46.89,62.04-71
						c21.024-25.14,38.569-52.199,55.224-80.379c6.213-10.511,12.464-21.068,18.634-31.698c-4.494,1.461-8.978,2.953-13.441,4.515
						C860.294,633.977,772.454,688.881,686.906,745.494z"/>
					<path style="fill:#FFFFFF;" d="M908.427,734.426c-36.159,43.018-73.607,85.125-116.664,121.206
						c14.38,17.123,28.331,34.625,41.777,52.505c90.383-72.677,151.241-180.48,162.034-302.677
						C970.105,650.805,941.924,694.573,908.427,734.426z"/>
					<path style="fill:#FFFFFF;" d="M596.195,700.095c-53.023-37.518-110.503-65.041-171.934-86.067
						c-34.76-11.897-70.289-21.546-106.294-28.86v-35.576c11.988,0.538,21.726,1.495,28.308,3.915
						c-6.267-5.464-13.694-12.974-20.76-22.888c-0.109-0.152-0.208-0.302-0.315-0.454c8.698,1.067,15.869,3.177,21.075,5.091
						c-6.267-5.464-13.694-12.974-20.76-22.888c-0.469-0.657-0.913-1.308-1.36-1.96c9.162,1.022,16.711,3.209,22.12,5.198
						c-6.012-5.241-13.09-12.391-19.894-21.716c8.161,1.108,14.929,3.104,19.894,4.93c-6.267-5.464-13.694-12.974-20.76-22.888
						c-5.272-7.396-9.161-14.472-12.035-20.611c-3.295,6.521-7.582,13.902-13.157,21.618c-6.494,8.988-13.138,16.22-19.043,21.88
						c4.59-1.685,10.996-3.63,18.813-4.784c-6.421,8.84-12.977,15.976-18.813,21.569c5.022-1.843,12.219-3.997,21.059-5.086
						c-0.653,0.946-1.324,1.898-2.016,2.855c-6.494,8.987-13.138,16.22-19.043,21.88c4.814-1.767,11.629-3.819,19.971-4.945
						c-0.31,0.439-0.609,0.874-0.928,1.315c-6.494,8.987-13.138,16.22-19.043,21.88c6.332-2.324,16.119-3.381,28.308-3.93v33.981
						c-9.266-1.786-18.553-3.465-27.874-4.94c-17.413-2.755-34.905-5.5-52.456-7.82v-33.043c17.11,0.577,30.951-0.629,40.229,2.958
						c-8.55-7.84-18.685-18.617-28.326-32.843c-0.149-0.22-0.285-0.437-0.433-0.657c11.872,1.531,21.655,4.564,28.759,7.311
						c-8.55-7.84-18.685-18.617-28.326-32.844c-0.645-0.951-1.257-1.894-1.871-2.838c12.52,1.464,22.809,4.627,30.197,7.484
						c-8.206-7.524-17.867-17.789-27.155-31.177c11.148,1.589,20.374,4.468,27.155,7.09c-8.55-7.84-18.685-18.617-28.326-32.844
						c-7.193-10.613-12.498-20.767-16.421-29.576c-4.495,9.357-10.345,19.949-17.952,31.022
						c-8.86,12.897-17.925,23.275-25.983,31.397c6.262-2.418,15.004-5.209,25.669-6.864c-8.76,12.686-17.706,22.926-25.669,30.952
						c6.852-2.645,16.672-5.736,28.733-7.298c-0.89,1.358-1.806,2.724-2.751,4.098c-8.86,12.897-17.925,23.275-25.983,31.397
						c6.568-2.536,15.867-5.48,27.25-7.096c-0.424,0.629-0.832,1.254-1.267,1.887c-8.86,12.897-17.925,23.275-25.983,31.397
						c8.918-3.443,22.846-2.37,40.229-2.961v31.996c-28.432-3.518-57.012-5.738-85.66-4.822c-3.259,0.104-5.82,0.381-7.843,0.971
						c22.083,5.403,43.478,13.478,64.896,21.382c31.093,11.474,62.839,20.976,93.785,32.886
						c112.866,43.441,217.409,106.92,312.913,180.791c46.013,35.59,88.425,75.091,129.346,116.376
						c11.864,11.97,23.628,24.225,34.988,36.868c18.414-9.727,36.063-20.709,52.809-32.863c-24.95-33.23-51.68-65.134-79.869-95.618
						C693.788,779.637,647.499,736.397,596.195,700.095z"/>
					<path style="fill:#FFFFFF;" d="M694.161,920.091c-40.646-39.945-82.68-77.882-128.463-111.911
						c-46.688-34.702-95.627-67.149-146.111-96.075c-51.036-29.242-104.571-53.932-159.848-74.022
						c-27.064-9.837-54.574-18.299-81.586-28.294c-18.479-6.838-37.323-14.07-56.64-18.787c0.037,0.671,0.092,1.341,0.132,2.012
						c39.969,25.94,80.529,50.977,119.806,77.968c85.389,58.681,159.919,130.367,232.237,204.171
						c34.56,35.27,70.354,69.809,103.125,106.76c6.187,6.976,12.189,14.093,17.976,21.357
						c51.063-4.121,99.646-17.007,144.264-37.133C724.538,950.296,709.372,935.039,694.161,920.091z"/>
					<path style="fill:#FFFFFF;" d="M183.247,729.88c-16.224-18.797-32.378-37.671-49.13-55.991
						c23.352,92.518,77.448,176.036,152.081,235.501c29.067,23.159,60.946,42.387,94.665,57.366
						c-35.399-52.279-74.508-101.971-116.979-148.73C237.082,788.517,209.315,760.081,183.247,729.88z"/>
					<path style="fill:#FFFFFF;" d="M438.873,877.057c-35.849-36.26-72.353-71.924-110.702-105.551
						c-37.545-32.922-77.045-62.87-118.584-90.569c-27.974-18.653-56.428-36.568-84.718-54.734c0.011,0.081,0.025,0.16,0.036,0.241
						c30.925,30.79,58.85,64.359,87.494,97.246c26.688,30.643,55.488,59.263,82.394,89.698
						c25.836,29.223,50.401,59.565,73.686,90.858c19.005,25.54,37.042,51.766,54.155,78.58
						c43.857,14.369,89.982,21.879,136.477,21.879c0.961,0,1.915-0.032,2.875-0.039c-6.667-7.7-13.531-15.23-20.514-22.606
						C507.851,946.549,473.255,911.834,438.873,877.057z"/>
				</g>
			</g>
		</g>
		<g>
			<path style="fill:#FFFFFF;" d="M537.88,119.666c0.016,0,0.032,0,0.047-0.002c6.94-0.366,13.996-0.571,20.97-0.609
				c0.487-0.003,0.879-0.399,0.876-0.886c-0.003-0.485-0.396-0.875-0.88-0.875c-0.002,0-0.003,0-0.005,0
				c-7.002,0.038-14.086,0.244-21.054,0.612c-0.486,0.026-0.858,0.44-0.833,0.925C537.026,119.302,537.415,119.666,537.88,119.666z"
				/>
			<path style="fill:#FFFFFF;" d="M375.589,160.232c0.125,0,0.252-0.026,0.372-0.083c6.324-2.961,12.798-5.805,19.243-8.453
				c0.45-0.186,0.665-0.7,0.48-1.15c-0.184-0.447-0.7-0.659-1.149-0.48c-6.472,2.66-12.972,5.516-19.32,8.488
				c-0.44,0.206-0.63,0.731-0.424,1.171C374.941,160.044,375.258,160.232,375.589,160.232z"/>
			<path style="fill:#FFFFFF;" d="M303.245,203.056c0.18,0,0.361-0.055,0.518-0.168c5.644-4.117,11.448-8.144,17.254-11.968
				c0.407-0.268,0.518-0.815,0.251-1.221c-0.267-0.404-0.812-0.518-1.219-0.251c-5.829,3.842-11.657,7.884-17.322,12.017
				c-0.393,0.287-0.48,0.837-0.193,1.231C302.705,202.931,302.973,203.056,303.245,203.056z"/>
			<path style="fill:#FFFFFF;" d="M270.495,229.438c0.208,0,0.417-0.074,0.585-0.222c5.221-4.633,10.613-9.193,16.026-13.554
				c0.378-0.306,0.438-0.86,0.132-1.238c-0.304-0.38-0.859-0.44-1.237-0.134c-5.435,4.38-10.848,8.957-16.09,13.609
				c-0.364,0.323-0.396,0.879-0.074,1.243C270.01,229.338,270.253,229.438,270.495,229.438z"/>
			<path style="fill:#FFFFFF;" d="M454.837,132.073c0.071,0,0.143-0.009,0.214-0.026c6.756-1.685,13.644-3.229,20.472-4.588
				c0.476-0.095,0.787-0.559,0.691-1.035c-0.095-0.478-0.553-0.793-1.035-0.691c-6.854,1.364-13.77,2.913-20.554,4.605
				c-0.472,0.119-0.758,0.597-0.641,1.068C454.084,131.807,454.443,132.073,454.837,132.073z"/>
			<path style="fill:#FFFFFF;" d="M496.062,123.874c0.043,0,0.087-0.004,0.131-0.01c6.887-1.027,13.892-1.902,20.818-2.6
				c0.483-0.048,0.837-0.48,0.788-0.963c-0.048-0.483-0.473-0.844-0.965-0.788c-6.954,0.7-13.986,1.577-20.901,2.61
				c-0.481,0.071-0.813,0.519-0.741,1.001C495.257,123.561,495.633,123.874,496.062,123.874z"/>
			<path style="fill:#FFFFFF;" d="M338.38,179.91c0.152,0,0.307-0.04,0.448-0.122c5.988-3.548,12.154-7,18.329-10.264
				c0.43-0.229,0.594-0.76,0.366-1.19c-0.225-0.43-0.757-0.595-1.19-0.368c-6.199,3.279-12.391,6.746-18.403,10.305
				c-0.418,0.249-0.556,0.789-0.309,1.207C337.786,179.756,338.079,179.91,338.38,179.91z"/>
			<path style="fill:#FFFFFF;" d="M240.423,258.814c0.236,0,0.471-0.095,0.645-0.28c4.746-5.098,9.677-10.151,14.656-15.014
				c0.347-0.339,0.354-0.898,0.014-1.245c-0.338-0.344-0.894-0.356-1.245-0.014c-4.998,4.882-9.949,9.953-14.714,15.072
				c-0.332,0.356-0.312,0.913,0.044,1.245C239.993,258.736,240.208,258.814,240.423,258.814z"/>
			<path style="fill:#FFFFFF;" d="M138.592,440.35c0.079,0.021,0.157,0.031,0.236,0.031c0.386,0,0.74-0.256,0.848-0.647
				c1.855-6.713,3.898-13.47,6.074-20.083c0.151-0.462-0.1-0.96-0.562-1.111c-0.462-0.158-0.96,0.1-1.112,0.561
				c-2.184,6.639-4.235,13.425-6.098,20.166C137.848,439.735,138.123,440.22,138.592,440.35z"/>
			<path style="fill:#FFFFFF;" d="M129.455,481.375c0.051,0.01,0.102,0.014,0.152,0.014c0.42,0,0.792-0.301,0.867-0.729
				c1.198-6.861,2.579-13.782,4.106-20.575c0.107-0.475-0.192-0.946-0.665-1.052c-0.474-0.103-0.946,0.193-1.052,0.667
				c-1.534,6.818-2.921,13.769-4.124,20.657C128.655,480.836,128.976,481.292,129.455,481.375z"/>
			<path style="fill:#FFFFFF;" d="M151.647,400.391c0.104,0.04,0.211,0.058,0.316,0.058c0.354,0,0.688-0.215,0.822-0.566
				c2.489-6.49,5.169-13.002,7.964-19.359c0.196-0.445-0.006-0.965-0.451-1.161c-0.44-0.191-0.964,0.007-1.16,0.452
				c-2.807,6.381-5.498,12.923-7.997,19.438C150.966,399.708,151.193,400.217,151.647,400.391z"/>
			<path style="fill:#FFFFFF;" d="M213.293,290.903c0.265,0,0.526-0.119,0.699-0.344c4.249-5.539,8.674-11.035,13.154-16.333
				c0.314-0.372,0.267-0.927-0.104-1.242c-0.372-0.313-0.927-0.267-1.241,0.103c-4.497,5.32-8.94,10.839-13.205,16.398
				c-0.297,0.387-0.224,0.939,0.162,1.235C212.918,290.844,213.106,290.903,213.293,290.903z"/>
			<path style="fill:#FFFFFF;" d="M188.895,325.288c0.145,0.091,0.307,0.134,0.466,0.134c0.293,0,0.58-0.146,0.747-0.414
				c3.687-5.9,7.565-11.79,11.529-17.505c0.278-0.401,0.178-0.949-0.221-1.226c-0.401-0.275-0.949-0.177-1.225,0.222
				c-3.98,5.74-7.875,11.654-11.575,17.578C188.357,324.488,188.483,325.03,188.895,325.288z"/>
			<path style="fill:#FFFFFF;" d="M168.458,361.954c0.126,0.064,0.26,0.093,0.392,0.093c0.323,0,0.635-0.179,0.788-0.488
				c3.097-6.211,6.393-12.443,9.794-18.518c0.238-0.425,0.087-0.961-0.338-1.199c-0.426-0.237-0.962-0.086-1.198,0.339
				c-3.416,6.099-6.724,12.355-9.833,18.594C167.846,361.21,168.023,361.738,168.458,361.954z"/>
			<path style="fill:#FFFFFF;" d="M742.122,158.048c6.309,2.867,12.651,5.936,18.85,9.121c0.129,0.067,0.267,0.098,0.402,0.098
				c0.318,0,0.628-0.174,0.782-0.478c0.224-0.433,0.052-0.963-0.38-1.185c-6.225-3.199-12.593-6.28-18.926-9.159
				c-0.44-0.196-0.963-0.007-1.166,0.437C741.484,157.325,741.68,157.846,742.122,158.048z"/>
			<path style="fill:#FFFFFF;" d="M959.862,375.94c0.146,0.323,0.468,0.516,0.801,0.516c0.122,0,0.246-0.026,0.365-0.079
				c0.442-0.201,0.638-0.722,0.437-1.166c-2.885-6.357-5.974-12.749-9.177-18.998c-0.222-0.43-0.753-0.6-1.186-0.382
				c-0.432,0.224-0.604,0.753-0.382,1.187C953.912,363.241,956.988,369.607,959.862,375.94z"/>
			<path style="fill:#FFFFFF;" d="M940.68,338.561c0.163,0.284,0.459,0.442,0.763,0.442c0.15,0,0.301-0.038,0.438-0.117
				c0.421-0.242,0.568-0.781,0.325-1.202c-3.489-6.06-7.174-12.121-10.957-18.018c-0.261-0.411-0.808-0.533-1.216-0.267
				c-0.409,0.263-0.53,0.806-0.267,1.216C933.535,326.49,937.206,332.527,940.68,338.561z"/>
			<path style="fill:#FFFFFF;" d="M918.008,303.217c0.172,0.241,0.442,0.37,0.717,0.37c0.177,0,0.356-0.053,0.511-0.163
				c0.395-0.282,0.488-0.83,0.206-1.228c-4.069-5.718-8.316-11.397-12.623-16.878c-0.301-0.387-0.86-0.451-1.236-0.148
				c-0.384,0.299-0.449,0.853-0.15,1.235C909.725,291.864,913.955,297.52,918.008,303.217z"/>
			<path style="fill:#FFFFFF;" d="M975.357,415.016c0.125,0.366,0.468,0.597,0.834,0.597c0.095,0,0.191-0.015,0.284-0.046
				c0.461-0.158,0.707-0.659,0.55-1.118c-2.263-6.627-4.72-13.292-7.305-19.81c-0.181-0.452-0.691-0.669-1.143-0.494
				c-0.452,0.179-0.672,0.691-0.494,1.144C970.657,401.778,973.104,408.416,975.357,415.016z"/>
			<path style="fill:#FFFFFF;" d="M999.244,539.187c0.012,0,0.024,0,0.036,0c0.485-0.021,0.863-0.43,0.844-0.917
				c-0.286-6.995-0.743-14.068-1.357-21.018c-0.045-0.485-0.507-0.836-0.954-0.8c-0.485,0.043-0.843,0.469-0.8,0.954
				c0.612,6.925,1.066,13.968,1.35,20.936C998.384,538.815,998.772,539.187,999.244,539.187z"/>
			<path style="fill:#FFFFFF;" d="M892.074,270.213c0.174,0.201,0.42,0.304,0.665,0.304c0.205,0,0.409-0.071,0.576-0.215
				c0.368-0.318,0.407-0.875,0.089-1.242c-4.579-5.286-9.346-10.531-14.169-15.591c-0.337-0.354-0.894-0.365-1.245-0.031
				c-0.352,0.335-0.366,0.894-0.031,1.245C882.766,259.725,887.513,264.949,892.074,270.213z"/>
			<path style="fill:#FFFFFF;" d="M995.536,497.322c0.041,0,0.081-0.002,0.12-0.009c0.483-0.065,0.82-0.509,0.753-0.99
				c-0.951-6.949-2.081-13.944-3.358-20.797c-0.089-0.48-0.559-0.789-1.027-0.703c-0.478,0.089-0.793,0.549-0.703,1.027
				c1.271,6.823,2.397,13.791,3.345,20.711C994.726,497.002,995.103,497.322,995.536,497.322z"/>
			<path style="fill:#FFFFFF;" d="M986.983,455.324c0.096,0.404,0.457,0.678,0.856,0.678c0.067,0,0.134-0.007,0.203-0.024
				c0.473-0.112,0.765-0.586,0.653-1.059c-1.613-6.811-3.412-13.667-5.346-20.377c-0.136-0.468-0.629-0.739-1.09-0.602
				c-0.468,0.134-0.736,0.622-0.602,1.09C983.585,441.712,985.377,448.541,986.983,455.324z"/>
			<path style="fill:#FFFFFF;" d="M621.661,123.176c6.895,0.951,13.862,2.084,20.707,3.367c0.055,0.01,0.11,0.015,0.163,0.015
				c0.415,0,0.785-0.296,0.864-0.719c0.09-0.478-0.224-0.937-0.703-1.027c-6.874-1.29-13.869-2.426-20.792-3.381
				c-0.497-0.062-0.927,0.272-0.992,0.751C620.843,122.665,621.18,123.111,621.661,123.176z"/>
			<path style="fill:#FFFFFF;" d="M863.123,239.845c0.17,0.162,0.389,0.242,0.607,0.242c0.232,0,0.464-0.091,0.638-0.273
				c0.335-0.351,0.322-0.908-0.031-1.245c-5.073-4.835-10.316-9.6-15.585-14.164c-0.368-0.318-0.923-0.279-1.242,0.089
				c-0.318,0.368-0.279,0.923,0.089,1.242C852.846,230.281,858.069,235.028,863.123,239.845z"/>
			<path style="fill:#FFFFFF;" d="M579.881,119.436c6.98,0.291,14.024,0.753,20.936,1.372c0.027,0.002,0.053,0.003,0.079,0.003
				c0.451,0,0.835-0.344,0.876-0.801c0.043-0.485-0.314-0.913-0.799-0.956c-6.939-0.622-14.011-1.085-21.018-1.379
				c-0.469,0.022-0.896,0.356-0.917,0.844C579.018,119.004,579.395,119.415,579.881,119.436z"/>
			<path style="fill:#FFFFFF;" d="M703.184,142.566c6.57,2.253,13.191,4.701,19.677,7.279c0.107,0.041,0.217,0.062,0.325,0.062
				c0.349,0,0.681-0.21,0.819-0.555c0.179-0.452-0.041-0.963-0.494-1.144c-6.512-2.588-13.158-5.047-19.756-7.307
				c-0.461-0.16-0.961,0.088-1.118,0.547C702.479,141.909,702.725,142.41,703.184,142.566z"/>
			<path style="fill:#FFFFFF;" d="M662.889,130.902c6.773,1.611,13.6,3.41,20.289,5.346c0.081,0.024,0.163,0.034,0.244,0.034
				c0.382,0,0.734-0.251,0.846-0.636c0.134-0.466-0.134-0.954-0.602-1.09c-6.715-1.943-13.569-3.75-20.372-5.367
				c-0.469-0.119-0.947,0.179-1.059,0.653C662.122,130.316,662.414,130.79,662.889,130.902z"/>
			<path style="fill:#FFFFFF;" d="M831.426,212.383c0.16,0.127,0.353,0.189,0.543,0.189c0.26,0,0.518-0.115,0.691-0.337
				c0.301-0.382,0.236-0.936-0.148-1.235c-5.496-4.323-11.167-8.565-16.854-12.611c-0.394-0.28-0.944-0.189-1.228,0.206
				c-0.282,0.397-0.189,0.946,0.206,1.228C820.302,203.854,825.951,208.079,831.426,212.383z"/>
			<path style="fill:#FFFFFF;" d="M779.37,177.192c6.013,3.463,12.037,7.128,17.901,10.892c0.148,0.095,0.313,0.139,0.476,0.139
				c0.289,0,0.573-0.143,0.741-0.404c0.263-0.409,0.143-0.954-0.265-1.218c-5.89-3.778-11.936-7.458-17.973-10.936
				c-0.425-0.241-0.96-0.098-1.204,0.323C778.805,176.409,778.949,176.948,779.37,177.192z"/>
			<path style="fill:#FFFFFF;" d="M124.298,523.092c0.023,0.003,0.046,0.003,0.069,0.003c0.456,0,0.841-0.351,0.877-0.813
				c0.538-6.957,1.25-13.982,2.116-20.876c0.06-0.483-0.281-0.923-0.763-0.984c-0.492-0.072-0.923,0.282-0.984,0.763
				c-0.869,6.923-1.584,13.975-2.125,20.962C123.451,522.631,123.813,523.055,124.298,523.092z"/>
			<path style="fill:#FFFFFF;" d="M414.545,144.229c0.098,0,0.197-0.015,0.295-0.052c6.584-2.339,13.307-4.545,19.983-6.559
				c0.465-0.139,0.729-0.631,0.588-1.097c-0.14-0.464-0.628-0.734-1.097-0.588c-6.701,2.02-13.452,4.237-20.063,6.586
				c-0.458,0.162-0.697,0.665-0.535,1.123C413.843,144.004,414.183,144.229,414.545,144.229z"/>
			<path style="fill:#FFFFFF;" d="M999.854,580.393c-0.024,0.469-0.413,0.832-0.879,0.832c-0.016,0-0.031,0-0.048-0.002
				c-0.485-0.026-0.856-0.44-0.831-0.927c0.373-6.94,0.585-13.997,0.629-20.974c0.003-0.485,0.397-0.875,0.88-0.875
				c0.002,0,0.003,0,0.005,0c0.487,0.003,0.879,0.399,0.875,0.886C1000.442,566.338,1000.229,573.424,999.854,580.393z"/>
			<path style="fill:#FFFFFF;" d="M999.612,558.448c-0.002,0-0.004,0-0.005,0c-0.483,0-0.877,0.39-0.88,0.875
				c-0.045,6.976-0.256,14.034-0.629,20.974c-0.026,0.487,0.346,0.901,0.831,0.927c0.017,0.002,0.033,0.002,0.048,0.002
				c0.466,0,0.855-0.363,0.879-0.832c0.375-6.969,0.588-14.056,0.633-21.06C1000.49,558.847,1000.098,558.451,999.612,558.448z"/>
		</g>
	</g>
</g>
</svg>
